<?xml version="1.0" standalone="no"?>
<!DOCTYPE svg PUBLIC "-//W3C//DTD SVG 20010904//EN"
 "http://www.w3.org/TR/2001/REC-SVG-20010904/DTD/svg10.dtd">
<svg version="1.0" xmlns="http://www.w3.org/2000/svg"
 width="512.000000pt" height="512.000000pt" viewBox="0 0 512.000000 512.000000"
 preserveAspectRatio="xMidYMid meet">

<g transform="translate(0.000000,512.000000) scale(0.100000,-0.100000)"
fill="#000000" stroke="none">
<path d="M325 4229 c-150 -22 -271 -133 -310 -285 -14 -54 -15 -217 -13 -1410
l3 -1349 22 -53 c43 -106 136 -195 237 -229 46 -16 121 -18 744 -21 l692 -3 0
1680 0 1681 -657 -1 c-362 -1 -685 -5 -718 -10z"/>
<path d="M3420 2560 l0 -1671 708 3 707 3 57 27 c115 54 197 162 217 288 15
89 15 2610 1 2698 -21 128 -94 228 -208 284 l-67 33 -707 3 -708 2 0 -1670z"/>
</g>
</svg>
